<svg xmlns="http://www.w3.org/2000/svg" viewBox="0 0 17 17" height="17" width="17"><title>fire-station-JP-11.svg</title><rect fill="none" x="0" y="0" width="17" height="17"></rect><rect x="1" y="1" rx="7.5" ry="7.5" width="15" height="15" stroke="#000" style="stroke-linejoin:round;stroke-miterlimit:4;" fill="#000" stroke-width="2"></rect><rect x="1" y="1" width="15" height="15" rx="7.5" ry="7.5" fill="#ffffff"></rect><path fill="#c0392b" transform="translate(3 3)" d="M6.375,5.8871V8.625a.875.875,0,0,1-1.75,0V5.8871A3.75,3.75,0,0,1,1.75,2.25a.75.75,0,0,1,1.5,0,2.25,2.25,0,0,0,4.5,0,.75.75,0,0,1,1.5,0A3.75,3.75,0,0,1,6.375,5.8871Z"></path></svg>