<svg xmlns="http://www.w3.org/2000/svg" viewBox="0 0 17 17" height="17" width="17"><title>landmark-JP-11.svg</title><rect fill="none" x="0" y="0" width="17" height="17"></rect><rect x="1" y="1" rx="7.5" ry="7.5" width="15" height="15" stroke="#000" style="stroke-linejoin:round;stroke-miterlimit:4;" fill="#000" stroke-width="2"></rect><rect x="1" y="1" width="15" height="15" rx="7.5" ry="7.5" fill="#ffffff"></rect><path fill="#c0392b" transform="translate(3 3)" d="M6.75,3.5A1.25,1.25,0,1,1,5.5,2.25,1.25,1.25,0,0,1,6.75,3.5Zm-4,2.75A1.25,1.25,0,1,0,4,7.5,1.25,1.25,0,0,0,2.75,6.25Zm5.5,0A1.25,1.25,0,1,0,9.5,7.5,1.25,1.25,0,0,0,8.25,6.25Z"></path></svg>